<svg width="1440" height="800" viewBox="0 0 1440 800" fill="none" xmlns="http://www.w3.org/2000/svg">
<g clip-path="url(#clip0_284_8)">
<rect width="1440" height="800" fill="black"/>
<path d="M115.796 458.501H117.796V456.501H115.796V458.501ZM115.796 496.459V498.459H117.796V496.459H115.796ZM36.556 496.459V494.459H34.556V496.459H36.556ZM36.556 537.464H34.556V539.464H36.556V537.464ZM95.8477 537.464H97.8477V535.464H95.8477V537.464ZM95.8477 574.314V576.314H97.8477V574.314H95.8477ZM36.556 574.314V572.314H34.556V574.314H36.556ZM36.556 653V655H38.556V653H36.556ZM-10.822 653H-12.822V655H-10.822V653ZM-10.822 458.501V456.501H-12.822V458.501H-10.822ZM113.796 458.501V496.459H117.796V458.501H113.796ZM115.796 494.459H36.556V498.459H115.796V494.459ZM34.556 496.459V537.464H38.556V496.459H34.556ZM36.556 539.464H95.8477V535.464H36.556V539.464ZM93.8477 537.464V574.314H97.8477V537.464H93.8477ZM95.8477 572.314H36.556V576.314H95.8477V572.314ZM34.556 574.314V653H38.556V574.314H34.556ZM36.556 651H-10.822V655H36.556V651ZM-8.82202 653V458.501H-12.822V653H-8.82202ZM-10.822 460.501H115.796V456.501H-10.822V460.501ZM182.257 642.194L181.279 643.939L181.288 643.944L182.257 642.194ZM145.962 606.73L144.23 607.732L144.238 607.744L144.245 607.756L145.962 606.73ZM145.962 503.939L144.245 502.914L144.24 502.921L144.236 502.929L145.962 503.939ZM182.257 468.475L181.288 466.726L181.279 466.731L182.257 468.475ZM282.831 468.475L281.853 470.22L281.862 470.225L282.831 468.475ZM318.85 503.939L317.115 504.934L317.119 504.942L317.124 504.95L318.85 503.939ZM318.85 606.73L320.576 607.741L320.581 607.732L318.85 606.73ZM282.831 642.194L283.81 643.939L283.81 643.939L282.831 642.194ZM269.809 596.202L268.331 594.855L268.324 594.862L268.318 594.87L269.809 596.202ZM269.809 514.191L268.318 515.523L268.33 515.537L268.343 515.551L269.809 514.191ZM195.002 513.914L193.536 512.554L193.529 512.561L193.522 512.568L195.002 513.914ZM195.002 596.479L193.51 597.811L193.523 597.825L193.536 597.839L195.002 596.479ZM232.683 652.939C214.721 652.939 198.248 648.77 183.227 640.445L181.288 643.944C196.928 652.612 214.073 656.939 232.683 656.939V652.939ZM183.236 640.45C168.399 632.127 156.553 620.556 147.679 605.704L144.245 607.756C153.472 623.197 165.823 635.268 181.279 643.939L183.236 640.45ZM147.693 605.729C139.016 590.725 134.663 573.897 134.663 555.196H130.663C130.663 574.546 135.175 592.074 144.23 607.732L147.693 605.729ZM134.663 555.196C134.663 536.496 139.016 519.764 147.688 504.95L144.236 502.929C135.175 518.407 130.663 535.847 130.663 555.196H134.663ZM147.679 504.965C156.553 490.114 168.399 478.542 183.236 470.22L181.279 466.731C165.823 475.401 153.472 487.473 144.245 502.914L147.679 504.965ZM183.227 470.225C198.248 461.9 214.721 457.73 232.683 457.73V453.73C214.073 453.73 196.928 458.058 181.288 466.726L183.227 470.225ZM232.683 457.73C250.645 457.73 267.022 461.9 281.853 470.22L283.81 466.731C268.349 458.058 251.293 453.73 232.683 453.73V457.73ZM281.862 470.225C296.875 478.545 308.616 490.106 317.115 504.934L320.585 502.945C311.721 487.481 299.45 475.399 283.801 466.726L281.862 470.225ZM317.124 504.95C325.795 519.764 330.149 536.496 330.149 555.196H334.149C334.149 535.847 329.636 518.407 320.576 502.929L317.124 504.95ZM330.149 555.196C330.149 573.897 325.795 590.725 317.118 605.729L320.581 607.732C329.636 592.074 334.149 574.546 334.149 555.196H330.149ZM317.124 605.72C308.435 620.563 296.686 632.129 281.853 640.45L283.81 643.939C299.269 635.266 311.532 623.19 320.576 607.741L317.124 605.72ZM281.853 640.45C267.022 648.77 250.645 652.939 232.683 652.939V656.939C251.293 656.939 268.349 652.612 283.81 643.939L281.853 640.45ZM232.683 613.717C248.693 613.717 261.639 608.356 271.301 597.534L268.318 594.87C259.509 604.735 247.704 609.717 232.683 609.717V613.717ZM271.288 597.548C281.112 586.761 285.94 572.575 285.94 555.196H281.94C281.94 571.804 277.347 584.955 268.331 594.855L271.288 597.548ZM285.94 555.196C285.94 537.641 281.116 523.443 271.276 512.831L268.343 515.551C277.343 525.256 281.94 538.396 281.94 555.196H285.94ZM271.301 512.859C261.639 502.037 248.693 496.675 232.683 496.675V500.675C247.704 500.675 259.509 505.657 268.318 515.523L271.301 512.859ZM232.683 496.675C216.508 496.675 203.386 501.93 193.536 512.554L196.469 515.274C205.458 505.579 217.457 500.675 232.683 500.675V496.675ZM193.522 512.568C183.87 523.185 179.149 537.473 179.149 555.196H183.149C183.149 538.195 187.663 524.96 196.482 515.259L193.522 512.568ZM179.149 555.196C179.149 572.743 183.874 587.019 193.51 597.811L196.494 595.147C187.659 585.252 183.149 572.005 183.149 555.196H179.149ZM193.536 597.839C203.386 608.462 216.508 613.717 232.683 613.717V609.717C217.457 609.717 205.458 604.814 196.469 595.119L193.536 597.839ZM457.696 653L455.944 653.965L456.514 655H457.696V653ZM417.244 579.578L418.996 578.613L418.426 577.578H417.244V579.578ZM405.885 579.578V577.578H403.885V579.578H405.885ZM405.885 653V655H407.885V653H405.885ZM358.507 653H356.507V655H358.507V653ZM358.507 458.501V456.501H356.507V458.501H358.507ZM477.09 466.536L476.196 468.325L476.208 468.331L477.09 466.536ZM501.472 488.701L499.733 489.69L499.737 489.697L499.742 489.704L501.472 488.701ZM498.424 554.365L496.807 553.189L496.8 553.198L496.793 553.208L498.424 554.365ZM466.285 575.976L465.712 574.06L463.277 574.787L464.557 576.983L466.285 575.976ZM511.169 653V655H514.649L512.897 651.993L511.169 653ZM405.885 546.053H403.885V548.053H405.885V546.053ZM454.648 539.681L453.264 538.237L453.249 538.251L453.234 538.267L454.648 539.681ZM454.648 504.217L453.234 505.631L453.249 505.646L453.264 505.66L454.648 504.217ZM405.885 497.844V495.844H403.885V497.844H405.885ZM459.447 652.035L418.996 578.613L415.493 580.543L455.944 653.965L459.447 652.035ZM417.244 577.578H405.885V581.578H417.244V577.578ZM403.885 579.578V653H407.885V579.578H403.885ZM405.885 651H358.507V655H405.885V651ZM360.507 653V458.501H356.507V653H360.507ZM358.507 460.501H438.024V456.501H358.507V460.501ZM438.024 460.501C453.129 460.501 465.827 463.14 476.196 468.325L477.985 464.747C466.927 459.218 453.581 456.501 438.024 456.501V460.501ZM476.208 468.331C486.791 473.533 494.598 480.659 499.733 489.69L503.21 487.712C497.632 477.902 489.185 470.252 477.972 464.741L476.208 468.331ZM499.742 489.704C504.909 498.613 507.507 508.606 507.507 519.732H511.507C511.507 507.954 508.748 497.26 503.202 487.697L499.742 489.704ZM507.507 519.732C507.507 532.252 503.939 543.382 496.807 553.189L500.042 555.541C507.686 545.03 511.507 533.071 511.507 519.732H507.507ZM496.793 553.208C489.894 562.937 479.592 569.914 465.712 574.06L466.857 577.892C481.423 573.542 492.547 566.112 500.056 555.522L496.793 553.208ZM464.557 576.983L509.441 654.007L512.897 651.993L468.013 574.969L464.557 576.983ZM511.169 651H457.696V655H511.169V651ZM405.885 548.053H435.254V544.053H405.885V548.053ZM435.254 548.053C444.229 548.053 451.299 545.858 456.062 541.095L453.234 538.267C449.5 542 443.641 544.053 435.254 544.053V548.053ZM456.032 541.125C460.956 536.405 463.298 529.822 463.298 521.672H459.298C459.298 529.036 457.206 534.459 453.264 538.237L456.032 541.125ZM463.298 521.672C463.298 513.857 460.937 507.473 456.032 502.773L453.264 505.66C457.225 509.456 459.298 514.709 459.298 521.672H463.298ZM456.062 502.802C451.299 498.039 444.229 495.844 435.254 495.844V499.844C443.641 499.844 449.5 501.897 453.234 505.631L456.062 502.802ZM435.254 495.844H405.885V499.844H435.254V495.844ZM403.885 497.844V546.053H407.885V497.844H403.885ZM668.36 520.009L666.602 520.963L667.17 522.009H668.36V520.009ZM653.121 505.325L652.167 507.082L652.197 507.099L652.227 507.114L653.121 505.325ZM593.275 515.299L594.743 516.658L594.749 516.651L594.755 516.644L593.275 515.299ZM593.829 597.587L592.376 598.961L592.389 598.975L592.402 598.988L593.829 597.587ZM663.373 603.683L662.196 602.065L662.187 602.072L662.179 602.078L663.373 603.683ZM681.105 578.193L683.002 578.825L683.88 576.193H681.105V578.193ZM620.982 578.193H618.982V580.193H620.982V578.193ZM620.982 543.283V541.283H618.982V543.283H620.982ZM724.05 543.283H726.05V541.283H724.05V543.283ZM724.05 587.336L725.967 587.905L726.05 587.626V587.336H724.05ZM706.04 620.306L704.506 619.023L704.499 619.032L704.493 619.04L706.04 620.306ZM674.178 644.965L673.304 643.166L674.178 644.965ZM578.868 641.917L577.88 643.657L577.893 643.664L577.906 643.671L578.868 641.917ZM543.681 606.73L541.933 607.702L541.937 607.71L541.942 607.718L543.681 606.73ZM543.681 504.217L541.937 503.238L541.933 503.245L543.681 504.217ZM578.868 469.029L579.839 470.778L579.847 470.773L579.856 470.768L578.868 469.029ZM688.862 473.185L687.705 474.817L687.714 474.823L688.862 473.185ZM720.725 520.009V522.009H723.31L722.661 519.507L720.725 520.009ZM670.117 519.055C666.41 512.226 661.027 507.042 654.016 503.536L652.227 507.114C658.514 510.257 663.29 514.863 666.602 520.963L670.117 519.055ZM654.075 503.567C647.263 499.869 639.256 498.061 630.125 498.061V502.061C638.726 502.061 646.05 503.762 652.167 507.082L654.075 503.567ZM630.125 498.061C614.304 498.061 601.456 503.327 591.795 513.954L594.755 516.644C603.565 506.953 615.284 502.061 630.125 502.061V498.061ZM591.808 513.94C582.154 524.367 577.422 538.286 577.422 555.473H581.422C581.422 539.044 585.926 526.18 594.743 516.658L591.808 513.94ZM577.422 555.473C577.422 573.752 582.329 588.335 592.376 598.961L595.283 596.213C586.12 586.521 581.422 573.029 581.422 555.473H577.422ZM592.402 598.988C602.647 609.426 616.598 614.549 634.004 614.549V610.549C617.423 610.549 604.592 605.697 595.257 596.186L592.402 598.988ZM634.004 614.549C645.993 614.549 656.221 611.498 664.567 605.287L662.179 602.078C654.639 607.689 645.288 610.549 634.004 610.549V614.549ZM664.549 605.3C673.066 599.106 679.198 590.237 683.002 578.825L679.207 577.56C675.623 588.314 669.934 596.438 662.196 602.065L664.549 605.3ZM681.105 576.193H620.982V580.193H681.105V576.193ZM622.982 578.193V543.283H618.982V578.193H622.982ZM620.982 545.283H724.05V541.283H620.982V545.283ZM722.05 543.283V587.336H726.05V543.283H722.05ZM722.132 586.767C718.706 598.307 712.841 609.058 704.506 619.023L707.575 621.59C716.233 611.237 722.374 600.007 725.967 587.905L722.132 586.767ZM704.493 619.04C696.381 628.954 685.998 637 673.304 643.166L675.052 646.764C688.217 640.37 699.076 631.977 707.588 621.573L704.493 619.04ZM673.304 643.166C660.681 649.298 646.393 652.385 630.402 652.385V656.385C646.919 656.385 661.816 653.193 675.052 646.764L673.304 643.166ZM630.402 652.385C611.49 652.385 594.65 648.297 579.83 640.164L577.906 643.671C593.379 652.162 610.894 656.385 630.402 656.385V652.385ZM579.856 640.178C565.208 631.86 553.738 620.39 545.42 605.743L541.942 607.718C550.616 622.993 562.605 634.982 577.88 643.657L579.856 640.178ZM545.429 605.759C537.302 591.13 533.213 574.386 533.213 555.473H529.213C529.213 574.981 533.436 592.408 541.933 607.702L545.429 605.759ZM533.213 555.473C533.213 536.561 537.302 519.817 545.429 505.188L541.933 503.245C533.436 518.539 529.213 535.966 529.213 555.473H533.213ZM545.425 505.195C553.743 490.367 565.207 478.907 579.839 470.778L577.897 467.281C562.606 475.776 550.612 487.774 541.937 503.238L545.425 505.195ZM579.856 470.768C594.482 462.462 611.22 458.284 630.125 458.284V454.284C610.61 454.284 593.177 458.603 577.88 467.29L579.856 470.768ZM630.125 458.284C653.066 458.284 672.22 463.833 687.705 474.817L690.02 471.554C673.735 460.003 653.73 454.284 630.125 454.284V458.284ZM687.714 474.823C703.374 485.803 713.73 500.998 718.789 520.511L722.661 519.507C717.376 499.124 706.49 483.102 690.011 471.548L687.714 474.823ZM720.725 518.009H668.36V522.009H720.725V518.009ZM797.671 496.459V494.459H795.671V496.459H797.671ZM797.671 535.802H795.671V537.802H797.671V535.802ZM861.119 535.802H863.119V533.802H861.119V535.802ZM861.119 572.374V574.374H863.119V572.374H861.119ZM797.671 572.374V570.374H795.671V572.374H797.671ZM797.671 615.042H795.671V617.042H797.671V615.042ZM869.43 615.042H871.43V613.042H869.43V615.042ZM869.43 653V655H871.43V653H869.43ZM750.293 653H748.293V655H750.293V653ZM750.293 458.501V456.501H748.293V458.501H750.293ZM869.43 458.501H871.43V456.501H869.43V458.501ZM869.43 496.459V498.459H871.43V496.459H869.43ZM795.671 496.459V535.802H799.671V496.459H795.671ZM797.671 537.802H861.119V533.802H797.671V537.802ZM859.119 535.802V572.374H863.119V535.802H859.119ZM861.119 570.374H797.671V574.374H861.119V570.374ZM795.671 572.374V615.042H799.671V572.374H795.671ZM797.671 617.042H869.43V613.042H797.671V617.042ZM867.43 615.042V653H871.43V615.042H867.43ZM869.43 651H750.293V655H869.43V651ZM752.293 653V458.501H748.293V653H752.293ZM750.293 460.501H869.43V456.501H750.293V460.501ZM867.43 458.501V496.459H871.43V458.501H867.43ZM869.43 494.459H797.671V498.459H869.43V494.459Z" fill="#141414"/>
<path d="M698.796 152.501H700.796V150.501H698.796V152.501ZM698.796 190.459V192.459H700.796V190.459H698.796ZM619.556 190.459V188.459H617.556V190.459H619.556ZM619.556 231.464H617.556V233.464H619.556V231.464ZM678.848 231.464H680.848V229.464H678.848V231.464ZM678.848 268.314V270.314H680.848V268.314H678.848ZM619.556 268.314V266.314H617.556V268.314H619.556ZM619.556 347V349H621.556V347H619.556ZM572.178 347H570.178V349H572.178V347ZM572.178 152.501V150.501H570.178V152.501H572.178ZM696.796 152.501V190.459H700.796V152.501H696.796ZM698.796 188.459H619.556V192.459H698.796V188.459ZM617.556 190.459V231.464H621.556V190.459H617.556ZM619.556 233.464H678.848V229.464H619.556V233.464ZM676.848 231.464V268.314H680.848V231.464H676.848ZM678.848 266.314H619.556V270.314H678.848V266.314ZM617.556 268.314V347H621.556V268.314H617.556ZM619.556 345H572.178V349H619.556V345ZM574.178 347V152.501H570.178V347H574.178ZM572.178 154.501H698.796V150.501H572.178V154.501ZM765.257 336.194L764.279 337.939L764.288 337.944L765.257 336.194ZM728.962 300.73L727.23 301.732L727.238 301.744L727.245 301.756L728.962 300.73ZM728.962 197.939L727.245 196.914L727.24 196.921L727.236 196.929L728.962 197.939ZM765.257 162.475L764.288 160.726L764.279 160.731L765.257 162.475ZM865.831 162.475L864.853 164.22L864.862 164.225L865.831 162.475ZM901.85 197.939L900.115 198.934L900.119 198.942L900.124 198.95L901.85 197.939ZM901.85 300.73L903.576 301.741L903.581 301.732L901.85 300.73ZM865.831 336.194L866.81 337.939L866.81 337.939L865.831 336.194ZM852.809 290.202L851.331 288.855L851.324 288.862L851.318 288.87L852.809 290.202ZM852.809 208.191L851.318 209.523L851.33 209.537L851.343 209.551L852.809 208.191ZM778.002 207.914L776.536 206.554L776.529 206.561L776.522 206.568L778.002 207.914ZM778.002 290.479L776.51 291.811L776.523 291.825L776.536 291.839L778.002 290.479ZM815.683 346.939C797.721 346.939 781.248 342.77 766.227 334.445L764.288 337.944C779.928 346.612 797.073 350.939 815.683 350.939V346.939ZM766.236 334.45C751.399 326.127 739.553 314.556 730.679 299.704L727.245 301.756C736.472 317.197 748.823 329.268 764.279 337.939L766.236 334.45ZM730.693 299.729C722.016 284.725 717.663 267.897 717.663 249.196H713.663C713.663 268.546 718.175 286.074 727.23 301.732L730.693 299.729ZM717.663 249.196C717.663 230.496 722.016 213.764 730.688 198.95L727.236 196.929C718.175 212.407 713.663 229.847 713.663 249.196H717.663ZM730.679 198.965C739.553 184.114 751.399 172.542 766.236 164.22L764.279 160.731C748.823 169.401 736.472 181.473 727.245 196.914L730.679 198.965ZM766.227 164.225C781.248 155.9 797.721 151.73 815.683 151.73V147.73C797.073 147.73 779.928 152.058 764.288 160.726L766.227 164.225ZM815.683 151.73C833.645 151.73 850.022 155.9 864.853 164.22L866.81 160.731C851.349 152.058 834.293 147.73 815.683 147.73V151.73ZM864.862 164.225C879.875 172.545 891.616 184.106 900.115 198.934L903.585 196.945C894.721 181.481 882.45 169.399 866.801 160.726L864.862 164.225ZM900.124 198.95C908.795 213.764 913.149 230.496 913.149 249.196H917.149C917.149 229.847 912.636 212.407 903.576 196.929L900.124 198.95ZM913.149 249.196C913.149 267.897 908.795 284.725 900.118 299.729L903.581 301.732C912.636 286.074 917.149 268.546 917.149 249.196H913.149ZM900.124 299.72C891.435 314.563 879.686 326.129 864.853 334.45L866.81 337.939C882.269 329.266 894.532 317.19 903.576 301.741L900.124 299.72ZM864.853 334.45C850.022 342.77 833.645 346.939 815.683 346.939V350.939C834.293 350.939 851.349 346.612 866.81 337.939L864.853 334.45ZM815.683 307.717C831.693 307.717 844.639 302.356 854.301 291.534L851.318 288.87C842.509 298.735 830.704 303.717 815.683 303.717V307.717ZM854.288 291.548C864.112 280.761 868.94 266.575 868.94 249.196H864.94C864.94 265.804 860.347 278.955 851.331 288.855L854.288 291.548ZM868.94 249.196C868.94 231.641 864.116 217.443 854.276 206.831L851.343 209.551C860.343 219.256 864.94 232.396 864.94 249.196H868.94ZM854.301 206.859C844.639 196.037 831.693 190.675 815.683 190.675V194.675C830.704 194.675 842.509 199.657 851.318 209.523L854.301 206.859ZM815.683 190.675C799.508 190.675 786.386 195.93 776.536 206.554L779.469 209.274C788.458 199.579 800.457 194.675 815.683 194.675V190.675ZM776.522 206.568C766.87 217.185 762.149 231.473 762.149 249.196H766.149C766.149 232.195 770.663 218.96 779.482 209.259L776.522 206.568ZM762.149 249.196C762.149 266.743 766.874 281.019 776.51 291.811L779.494 289.147C770.659 279.252 766.149 266.005 766.149 249.196H762.149ZM776.536 291.839C786.386 302.462 799.508 307.717 815.683 307.717V303.717C800.457 303.717 788.458 298.814 779.469 289.119L776.536 291.839ZM1040.7 347L1038.94 347.965L1039.51 349H1040.7V347ZM1000.24 273.578L1002 272.613L1001.43 271.578H1000.24V273.578ZM988.885 273.578V271.578H986.885V273.578H988.885ZM988.885 347V349H990.885V347H988.885ZM941.507 347H939.507V349H941.507V347ZM941.507 152.501V150.501H939.507V152.501H941.507ZM1060.09 160.536L1059.2 162.325L1059.21 162.331L1060.09 160.536ZM1084.47 182.701L1082.73 183.69L1082.74 183.697L1082.74 183.704L1084.47 182.701ZM1081.42 248.365L1079.81 247.189L1079.8 247.198L1079.79 247.208L1081.42 248.365ZM1049.28 269.976L1048.71 268.06L1046.28 268.787L1047.56 270.983L1049.28 269.976ZM1094.17 347V349H1097.65L1095.9 345.993L1094.17 347ZM988.885 240.053H986.885V242.053H988.885V240.053ZM1037.65 233.681L1036.26 232.237L1036.25 232.251L1036.23 232.267L1037.65 233.681ZM1037.65 198.217L1036.23 199.631L1036.25 199.646L1036.26 199.66L1037.65 198.217ZM988.885 191.844V189.844H986.885V191.844H988.885ZM1042.45 346.035L1002 272.613L998.493 274.543L1038.94 347.965L1042.45 346.035ZM1000.24 271.578H988.885V275.578H1000.24V271.578ZM986.885 273.578V347H990.885V273.578H986.885ZM988.885 345H941.507V349H988.885V345ZM943.507 347V152.501H939.507V347H943.507ZM941.507 154.501H1021.02V150.501H941.507V154.501ZM1021.02 154.501C1036.13 154.501 1048.83 157.14 1059.2 162.325L1060.98 158.747C1049.93 153.218 1036.58 150.501 1021.02 150.501V154.501ZM1059.21 162.331C1069.79 167.533 1077.6 174.659 1082.73 183.69L1086.21 181.712C1080.63 171.902 1072.19 164.252 1060.97 158.741L1059.21 162.331ZM1082.74 183.704C1087.91 192.613 1090.51 202.606 1090.51 213.732H1094.51C1094.51 201.954 1091.75 191.26 1086.2 181.697L1082.74 183.704ZM1090.51 213.732C1090.51 226.252 1086.94 237.382 1079.81 247.189L1083.04 249.541C1090.69 239.03 1094.51 227.071 1094.51 213.732H1090.51ZM1079.79 247.208C1072.89 256.937 1062.59 263.914 1048.71 268.06L1049.86 271.892C1064.42 267.542 1075.55 260.112 1083.06 249.522L1079.79 247.208ZM1047.56 270.983L1092.44 348.007L1095.9 345.993L1051.01 268.969L1047.56 270.983ZM1094.17 345H1040.7V349H1094.17V345ZM988.885 242.053H1018.25V238.053H988.885V242.053ZM1018.25 242.053C1027.23 242.053 1034.3 239.858 1039.06 235.095L1036.23 232.267C1032.5 236 1026.64 238.053 1018.25 238.053V242.053ZM1039.03 235.125C1043.96 230.405 1046.3 223.822 1046.3 215.672H1042.3C1042.3 223.036 1040.21 228.459 1036.26 232.237L1039.03 235.125ZM1046.3 215.672C1046.3 207.857 1043.94 201.473 1039.03 196.773L1036.26 199.66C1040.23 203.456 1042.3 208.709 1042.3 215.672H1046.3ZM1039.06 196.802C1034.3 192.039 1027.23 189.844 1018.25 189.844V193.844C1026.64 193.844 1032.5 195.897 1036.23 199.631L1039.06 196.802ZM1018.25 189.844H988.885V193.844H1018.25V189.844ZM986.885 191.844V240.053H990.885V191.844H986.885ZM1251.36 214.009L1249.6 214.963L1250.17 216.009H1251.36V214.009ZM1236.12 199.325L1235.17 201.082L1235.2 201.099L1235.23 201.114L1236.12 199.325ZM1176.28 209.299L1177.74 210.658L1177.75 210.651L1177.76 210.644L1176.28 209.299ZM1176.83 291.587L1175.38 292.961L1175.39 292.975L1175.4 292.988L1176.83 291.587ZM1246.37 297.683L1245.2 296.065L1245.19 296.072L1245.18 296.078L1246.37 297.683ZM1264.1 272.193L1266 272.825L1266.88 270.193H1264.1V272.193ZM1203.98 272.193H1201.98V274.193H1203.98V272.193ZM1203.98 237.283V235.283H1201.98V237.283H1203.98ZM1307.05 237.283H1309.05V235.283H1307.05V237.283ZM1307.05 281.336L1308.97 281.905L1309.05 281.626V281.336H1307.05ZM1289.04 314.306L1287.51 313.023L1287.5 313.032L1287.49 313.04L1289.04 314.306ZM1257.18 338.965L1256.3 337.166L1257.18 338.965ZM1161.87 335.917L1160.88 337.657L1160.89 337.664L1160.91 337.671L1161.87 335.917ZM1126.68 300.73L1124.93 301.702L1124.94 301.71L1124.94 301.718L1126.68 300.73ZM1126.68 198.217L1124.94 197.238L1124.93 197.245L1126.68 198.217ZM1161.87 163.029L1162.84 164.778L1162.85 164.773L1162.86 164.768L1161.87 163.029ZM1271.86 167.185L1270.71 168.817L1270.71 168.823L1271.86 167.185ZM1303.72 214.009V216.009H1306.31L1305.66 213.507L1303.72 214.009ZM1253.12 213.055C1249.41 206.226 1244.03 201.042 1237.02 197.536L1235.23 201.114C1241.51 204.257 1246.29 208.863 1249.6 214.963L1253.12 213.055ZM1237.08 197.567C1230.26 193.869 1222.26 192.061 1213.12 192.061V196.061C1221.73 196.061 1229.05 197.762 1235.17 201.082L1237.08 197.567ZM1213.12 192.061C1197.3 192.061 1184.46 197.327 1174.8 207.954L1177.76 210.644C1186.57 200.953 1198.28 196.061 1213.12 196.061V192.061ZM1174.81 207.94C1165.15 218.367 1160.42 232.286 1160.42 249.473H1164.42C1164.42 233.044 1168.93 220.18 1177.74 210.658L1174.81 207.94ZM1160.42 249.473C1160.42 267.752 1165.33 282.335 1175.38 292.961L1178.28 290.213C1169.12 280.521 1164.42 267.029 1164.42 249.473H1160.42ZM1175.4 292.988C1185.65 303.426 1199.6 308.549 1217 308.549V304.549C1200.42 304.549 1187.59 299.697 1178.26 290.186L1175.4 292.988ZM1217 308.549C1228.99 308.549 1239.22 305.498 1247.57 299.287L1245.18 296.078C1237.64 301.689 1228.29 304.549 1217 304.549V308.549ZM1247.55 299.3C1256.07 293.106 1262.2 284.237 1266 272.825L1262.21 271.56C1258.62 282.314 1252.93 290.438 1245.2 296.065L1247.55 299.3ZM1264.1 270.193H1203.98V274.193H1264.1V270.193ZM1205.98 272.193V237.283H1201.98V272.193H1205.98ZM1203.98 239.283H1307.05V235.283H1203.98V239.283ZM1305.05 237.283V281.336H1309.05V237.283H1305.05ZM1305.13 280.767C1301.71 292.307 1295.84 303.058 1287.51 313.023L1290.57 315.59C1299.23 305.237 1305.37 294.007 1308.97 281.905L1305.13 280.767ZM1287.49 313.04C1279.38 322.954 1269 331 1256.3 337.166L1258.05 340.764C1271.22 334.37 1282.08 325.977 1290.59 315.573L1287.49 313.04ZM1256.3 337.166C1243.68 343.298 1229.39 346.385 1213.4 346.385V350.385C1229.92 350.385 1244.82 347.193 1258.05 340.764L1256.3 337.166ZM1213.4 346.385C1194.49 346.385 1177.65 342.297 1162.83 334.164L1160.91 337.671C1176.38 346.162 1193.89 350.385 1213.4 350.385V346.385ZM1162.86 334.178C1148.21 325.86 1136.74 314.39 1128.42 299.743L1124.94 301.718C1133.62 316.993 1145.61 328.982 1160.88 337.657L1162.86 334.178ZM1128.43 299.759C1120.3 285.13 1116.21 268.386 1116.21 249.473H1112.21C1112.21 268.981 1116.44 286.408 1124.93 301.702L1128.43 299.759ZM1116.21 249.473C1116.21 230.561 1120.3 213.817 1128.43 199.188L1124.93 197.245C1116.44 212.539 1112.21 229.966 1112.21 249.473H1116.21ZM1128.43 199.195C1136.74 184.367 1148.21 172.907 1162.84 164.778L1160.9 161.281C1145.61 169.776 1133.61 181.774 1124.94 197.238L1128.43 199.195ZM1162.86 164.768C1177.48 156.462 1194.22 152.284 1213.12 152.284V148.284C1193.61 148.284 1176.18 152.603 1160.88 161.29L1162.86 164.768ZM1213.12 152.284C1236.07 152.284 1255.22 157.833 1270.71 168.817L1273.02 165.554C1256.73 154.003 1236.73 148.284 1213.12 148.284V152.284ZM1270.71 168.823C1286.37 179.803 1296.73 194.998 1301.79 214.511L1305.66 213.507C1300.38 193.124 1289.49 177.102 1273.01 165.548L1270.71 168.823ZM1303.72 212.009H1251.36V216.009H1303.72V212.009ZM1380.67 190.459V188.459H1378.67V190.459H1380.67ZM1380.67 229.802H1378.67V231.802H1380.67V229.802ZM1444.12 229.802H1446.12V227.802H1444.12V229.802ZM1444.12 266.374V268.374H1446.12V266.374H1444.12ZM1380.67 266.374V264.374H1378.67V266.374H1380.67ZM1380.67 309.042H1378.67V311.042H1380.67V309.042ZM1452.43 309.042H1454.43V307.042H1452.43V309.042ZM1452.43 347V349H1454.43V347H1452.43ZM1333.29 347H1331.29V349H1333.29V347ZM1333.29 152.501V150.501H1331.29V152.501H1333.29ZM1452.43 152.501H1454.43V150.501H1452.43V152.501ZM1452.43 190.459V192.459H1454.43V190.459H1452.43ZM1378.67 190.459V229.802H1382.67V190.459H1378.67ZM1380.67 231.802H1444.12V227.802H1380.67V231.802ZM1442.12 229.802V266.374H1446.12V229.802H1442.12ZM1444.12 264.374H1380.67V268.374H1444.12V264.374ZM1378.67 266.374V309.042H1382.67V266.374H1378.67ZM1380.67 311.042H1452.43V307.042H1380.67V311.042ZM1450.43 309.042V347H1454.43V309.042H1450.43ZM1452.43 345H1333.29V349H1452.43V345ZM1335.29 347V152.501H1331.29V347H1335.29ZM1333.29 154.501H1452.43V150.501H1333.29V154.501ZM1450.43 152.501V190.459H1454.43V152.501H1450.43ZM1452.43 188.459H1380.67V192.459H1452.43V188.459Z" fill="#141414"/>
</g>
<defs>
<clipPath id="clip0_284_8">
<rect width="1440" height="800" fill="white"/>
</clipPath>
</defs>
</svg>
