<svg width="1440" height="810" viewBox="0 0 1440 810" fill="none" xmlns="http://www.w3.org/2000/svg">
<rect width="1440" height="810" fill="black"/>
<path opacity="0.03" d="M370.935 227.319V269.801H282.25V315.694H348.609V356.935H282.25V445H229.225V227.319H370.935ZM501.753 447.171C481.287 447.171 462.475 442.416 445.317 432.907C428.365 423.397 414.825 410.167 404.695 393.216C394.773 376.057 389.811 356.832 389.811 335.539C389.811 314.247 394.773 295.125 404.695 278.174C414.825 261.222 428.365 247.992 445.317 238.482C462.475 228.973 481.287 224.218 501.753 224.218C522.218 224.218 540.927 228.973 557.878 238.482C575.036 247.992 588.473 261.222 598.189 278.174C608.112 295.125 613.074 314.247 613.074 335.539C613.074 356.832 608.112 376.057 598.189 393.216C588.267 410.167 574.83 423.397 557.878 432.907C540.927 442.416 522.218 447.171 501.753 447.171ZM501.753 398.797C519.117 398.797 532.968 393.009 543.304 381.432C553.847 369.856 559.119 354.558 559.119 335.539C559.119 316.314 553.847 301.017 543.304 289.647C532.968 278.07 519.117 272.282 501.753 272.282C484.181 272.282 470.124 277.967 459.581 289.337C449.245 300.706 444.076 316.107 444.076 335.539C444.076 354.765 449.245 370.166 459.581 381.742C470.124 393.112 484.181 398.797 501.753 398.797ZM753.584 445L708.311 362.827H695.598V445H642.573V227.319H731.568C748.726 227.319 763.3 230.317 775.29 236.312C787.487 242.307 796.583 250.576 802.578 261.119C808.573 271.455 811.57 283.032 811.57 295.848C811.57 310.319 807.436 323.239 799.167 334.609C791.104 345.979 779.114 354.041 763.197 358.796L813.431 445H753.584ZM695.598 325.307H728.467C738.183 325.307 745.418 322.929 750.173 318.175C755.134 313.42 757.615 306.701 757.615 298.019C757.615 289.75 755.134 283.238 750.173 278.484C745.418 273.729 738.183 271.352 728.467 271.352H695.598V325.307ZM989.356 296.159C985.428 288.923 979.743 283.445 972.301 279.724C965.066 275.796 956.487 273.832 946.564 273.832C929.406 273.832 915.659 279.517 905.323 290.887C894.986 302.05 889.818 317.038 889.818 335.85C889.818 355.902 895.193 371.613 905.943 382.983C916.899 394.146 931.887 399.727 950.905 399.727C963.929 399.727 974.885 396.42 983.775 389.805C992.87 383.189 999.486 373.68 1003.62 361.277H936.331V322.206H1051.68V371.51C1047.76 384.74 1041.04 397.04 1031.53 408.41C1022.23 419.78 1010.34 428.979 995.868 436.007C981.397 443.036 965.066 446.55 946.874 446.55C925.375 446.55 906.15 441.899 889.198 432.597C872.454 423.087 859.327 409.96 849.817 393.216C840.515 376.471 835.863 357.349 835.863 335.85C835.863 314.35 840.515 295.228 849.817 278.484C859.327 261.532 872.454 248.405 889.198 239.103C905.943 229.593 925.065 224.839 946.564 224.839C972.611 224.839 994.524 231.144 1012.3 243.754C1030.29 256.364 1042.17 273.832 1047.96 296.159H989.356ZM1134.08 269.801V313.833H1205.09V354.765H1134.08V402.518H1214.39V445H1081.05V227.319H1214.39V269.801H1134.08Z" fill="white"/>
</svg>
