<svg width="1227" height="800" viewBox="0 0 1227 800" fill="none" xmlns="http://www.w3.org/2000/svg">
<path d="M831.517 556.515C811.702 556.444 794.585 551.863 780.168 542.772C765.75 533.681 754.635 520.577 746.823 503.461C739.01 486.344 735.139 465.819 735.21 441.884C735.281 417.878 739.188 397.495 746.929 380.733C754.742 363.972 765.821 351.224 780.168 342.488C794.585 333.752 811.702 329.384 831.517 329.384C851.333 329.384 868.449 333.787 882.867 342.594C897.284 351.33 908.399 364.079 916.212 380.84C924.024 397.601 927.895 417.949 927.824 441.884C927.824 465.961 923.918 486.557 916.105 503.674C908.293 520.79 897.178 533.894 882.76 542.985C868.413 552.005 851.333 556.515 831.517 556.515ZM831.517 508.361C841.744 508.361 850.125 503.035 856.659 492.381C863.264 481.657 866.531 464.824 866.46 441.884C866.46 426.898 864.969 414.647 861.986 405.13C859.003 395.613 854.884 388.581 849.628 384.036C844.372 379.42 838.335 377.111 831.517 377.111C821.29 377.111 812.945 382.296 806.482 392.665C800.019 403.035 796.716 419.441 796.574 441.884C796.503 457.154 797.959 469.725 800.942 479.597C803.925 489.398 808.044 496.643 813.3 501.33C818.627 506.018 824.699 508.361 831.517 508.361ZM1074.95 509.64V498.134C1074.95 490.18 1076.58 482.9 1079.85 476.295C1083.19 469.618 1088.02 464.292 1094.34 460.314C1100.73 456.266 1108.47 454.242 1117.56 454.242C1126.79 454.242 1134.54 456.266 1140.79 460.314C1147.04 464.292 1151.76 469.618 1154.95 476.295C1158.15 482.9 1159.75 490.18 1159.75 498.134V509.64C1159.75 517.594 1158.12 524.91 1154.85 531.586C1151.65 538.191 1146.89 543.518 1140.57 547.566C1134.32 551.543 1126.65 553.532 1117.56 553.532C1108.33 553.532 1100.55 551.543 1094.23 547.566C1087.91 543.518 1083.12 538.191 1079.85 531.586C1076.58 524.91 1074.95 517.594 1074.95 509.64ZM1096.68 498.134V509.64C1096.68 516.245 1098.24 522.175 1101.37 527.431C1104.49 532.616 1109.89 535.208 1117.56 535.208C1125.02 535.208 1130.27 532.616 1133.33 527.431C1136.45 522.175 1138.02 516.245 1138.02 509.64V498.134C1138.02 491.529 1136.52 485.634 1133.54 480.449C1130.56 475.194 1125.23 472.566 1117.56 472.566C1110.1 472.566 1104.74 475.194 1101.47 480.449C1098.28 485.634 1096.68 491.529 1096.68 498.134ZM966.283 384.782V373.276C966.283 365.322 967.916 358.042 971.183 351.437C974.521 344.76 979.351 339.434 985.672 335.456C992.064 331.408 999.806 329.384 1008.9 329.384C1018.13 329.384 1025.87 331.408 1032.12 335.456C1038.37 339.434 1043.09 344.76 1046.29 351.437C1049.49 358.042 1051.08 365.322 1051.08 373.276V384.782C1051.08 392.736 1049.45 400.052 1046.18 406.728C1042.99 413.333 1038.23 418.66 1031.91 422.708C1025.66 426.685 1017.99 428.674 1008.9 428.674C999.663 428.674 991.886 426.685 985.565 422.708C979.244 418.66 974.45 413.333 971.183 406.728C967.916 400.052 966.283 392.736 966.283 384.782ZM988.016 373.276V384.782C988.016 391.387 989.578 397.317 992.703 402.573C995.828 407.758 1001.23 410.35 1008.9 410.35C1016.35 410.35 1021.61 407.758 1024.66 402.573C1027.79 397.317 1029.35 391.387 1029.35 384.782V373.276C1029.35 366.671 1027.86 360.776 1024.88 355.591C1021.89 350.336 1016.57 347.708 1008.9 347.708C1001.44 347.708 996.077 350.336 992.81 355.591C989.614 360.776 988.016 366.671 988.016 373.276ZM974.379 550.549L1124.38 332.367H1148.67L998.669 550.549H974.379Z" fill="white"/>
<path d="M856.415 591.091V587.185H883.688V591.091H872.253V623.549H867.85V591.091H856.415ZM890.484 623.549V587.185H912.43V591.091H894.887V603.378H911.293V607.285H894.887V619.643H912.714V623.549H890.484ZM921.858 623.549H917.241L930.594 587.185H935.139L948.491 623.549H943.875L933.008 592.938H932.724L921.858 623.549ZM923.562 609.344H942.17V613.251H923.562V609.344ZM954.155 587.185H959.411L971.769 617.37H972.195L984.553 587.185H989.809V623.549H985.69V595.921H985.334L973.971 623.549H969.994L958.63 595.921H958.275V623.549H954.155V587.185ZM1024.77 591.091V587.185H1052.05V591.091H1040.61V623.549H1036.21V591.091H1024.77ZM1088.01 605.367C1088.01 609.202 1087.32 612.517 1085.93 615.31C1084.55 618.104 1082.65 620.258 1080.23 621.773C1077.82 623.288 1075.06 624.046 1071.96 624.046C1068.86 624.046 1066.1 623.288 1063.69 621.773C1061.27 620.258 1059.37 618.104 1057.99 615.31C1056.6 612.517 1055.91 609.202 1055.91 605.367C1055.91 601.532 1056.6 598.217 1057.99 595.424C1059.37 592.63 1061.27 590.476 1063.69 588.961C1066.1 587.446 1068.86 586.688 1071.96 586.688C1075.06 586.688 1077.82 587.446 1080.23 588.961C1082.65 590.476 1084.55 592.63 1085.93 595.424C1087.32 598.217 1088.01 601.532 1088.01 605.367ZM1083.75 605.367C1083.75 602.218 1083.22 599.561 1082.17 597.395C1081.13 595.229 1079.71 593.589 1077.93 592.476C1076.15 591.364 1074.16 590.807 1071.96 590.807C1069.76 590.807 1067.76 591.364 1065.98 592.476C1064.2 593.589 1062.79 595.229 1061.73 597.395C1060.69 599.561 1060.17 602.218 1060.17 605.367C1060.17 608.516 1060.69 611.173 1061.73 613.339C1062.79 615.506 1064.2 617.145 1065.98 618.258C1067.76 619.37 1069.76 619.927 1071.96 619.927C1074.16 619.927 1076.15 619.37 1077.93 618.258C1079.71 617.145 1081.13 615.506 1082.17 613.339C1083.22 611.173 1083.75 608.516 1083.75 605.367ZM1095.42 623.549V587.185H1099.82V605.225H1100.24L1116.58 587.185H1122.33L1107.06 603.591L1122.33 623.549H1117.01L1104.36 606.645L1099.82 611.759V623.549H1095.42ZM1128.03 623.549V587.185H1149.98V591.091H1132.44V603.378H1148.84V607.285H1132.44V619.643H1150.26V623.549H1128.03ZM1186.75 587.185V623.549H1182.49L1162.67 594.998H1162.32V623.549H1157.92V587.185H1162.18L1182.06 615.807H1182.42V587.185H1186.75ZM1215.45 596.276C1215.24 594.477 1214.37 593.08 1212.86 592.086C1211.34 591.091 1209.48 590.594 1207.28 590.594C1205.67 590.594 1204.26 590.855 1203.05 591.376C1201.86 591.896 1200.92 592.613 1200.25 593.524C1199.59 594.435 1199.25 595.471 1199.25 596.631C1199.25 597.602 1199.49 598.436 1199.95 599.135C1200.42 599.821 1201.02 600.395 1201.76 600.857C1202.49 601.307 1203.26 601.68 1204.07 601.976C1204.87 602.26 1205.61 602.491 1206.29 602.668L1209.98 603.662C1210.93 603.911 1211.98 604.254 1213.14 604.692C1214.31 605.13 1215.43 605.728 1216.5 606.486C1217.57 607.231 1218.46 608.19 1219.16 609.362C1219.86 610.534 1220.21 611.972 1220.21 613.677C1220.21 615.642 1219.69 617.417 1218.66 619.003C1217.64 620.59 1216.15 621.85 1214.19 622.785C1212.23 623.72 1209.86 624.188 1207.07 624.188C1204.46 624.188 1202.21 623.768 1200.3 622.927C1198.41 622.087 1196.92 620.915 1195.83 619.412C1194.75 617.908 1194.14 616.162 1194 614.174H1198.54C1198.66 615.547 1199.12 616.683 1199.93 617.583C1200.75 618.471 1201.78 619.134 1203.02 619.572C1204.27 619.998 1205.62 620.211 1207.07 620.211C1208.75 620.211 1210.26 619.939 1211.6 619.394C1212.93 618.838 1213.99 618.068 1214.77 617.086C1215.55 616.091 1215.95 614.931 1215.95 613.606C1215.95 612.398 1215.61 611.416 1214.93 610.658C1214.26 609.901 1213.37 609.285 1212.27 608.812C1211.17 608.338 1209.98 607.924 1208.7 607.569L1204.23 606.29C1201.39 605.474 1199.14 604.308 1197.48 602.792C1195.82 601.277 1194.99 599.295 1194.99 596.844C1194.99 594.808 1195.54 593.033 1196.64 591.518C1197.76 589.991 1199.25 588.807 1201.12 587.966C1203 587.114 1205.1 586.688 1207.42 586.688C1209.77 586.688 1211.85 587.108 1213.67 587.949C1215.5 588.777 1216.94 589.914 1218 591.358C1219.08 592.802 1219.65 594.441 1219.71 596.276H1215.45Z" fill="white"/>
<path d="M301.28 76.5488V3H1224V791.593H762.64" stroke="white" stroke-width="5"/>
<path d="M99.7159 571.884C112.429 571.884 124.467 573.908 135.831 577.956C147.195 581.934 157.244 588.219 165.98 596.813C174.787 605.407 181.676 616.628 186.648 630.478C191.69 644.256 194.247 660.947 194.318 680.549C194.389 698.447 192.152 714.533 187.607 728.809C183.132 743.013 176.705 755.123 168.324 765.137C160.014 775.151 150 782.822 138.281 788.148C126.634 793.404 113.636 796.032 99.2898 796.032C83.1676 796.032 68.9986 792.942 56.7827 786.763C44.5668 780.584 34.8366 772.275 27.5923 761.834C20.348 751.394 16.1222 739.782 14.9148 726.998H73.2955C74.7159 733.603 77.8409 738.397 82.6705 741.38C87.5 744.292 93.0398 745.748 99.2898 745.748C111.79 745.748 120.916 740.35 126.669 729.555C132.493 718.688 135.44 704.199 135.511 686.089H134.233C131.463 692.765 127.273 698.482 121.662 703.241C116.051 707.999 109.517 711.657 102.06 714.214C94.6023 716.77 86.7188 718.049 78.4091 718.049C65.2699 718.049 53.7642 715.101 43.892 709.206C34.0199 703.241 26.3139 695.108 20.7741 684.81C15.2344 674.441 12.429 662.651 12.358 649.441C12.2869 633.958 15.9446 620.393 23.331 608.745C30.7173 597.097 40.9801 588.042 54.1193 581.579C67.2585 575.116 82.4574 571.884 99.7159 571.884ZM100.142 616.628C94.2472 616.628 88.9915 617.978 84.375 620.677C79.8295 623.376 76.2429 627.033 73.6151 631.65C71.0582 636.266 69.8153 641.486 69.8864 647.31C69.9574 653.134 71.2713 658.354 73.8281 662.971C76.456 667.587 80.0071 671.245 84.4815 673.944C89.027 676.643 94.2472 677.992 100.142 677.992C104.474 677.992 108.487 677.246 112.18 675.755C115.874 674.192 119.07 672.026 121.768 669.256C124.538 666.415 126.669 663.148 128.161 659.455C129.723 655.691 130.469 651.643 130.398 647.31C130.327 641.486 128.977 636.266 126.349 631.65C123.722 627.033 120.135 623.376 115.589 620.677C111.044 617.978 105.895 616.628 100.142 616.628ZM314.888 799.015C295.073 798.944 277.956 794.363 263.539 785.272C249.121 776.181 238.006 763.077 230.194 745.961C222.381 728.844 218.51 708.319 218.581 684.384C218.652 660.378 222.559 639.995 230.3 623.233C238.113 606.472 249.192 593.724 263.539 584.988C277.956 576.252 295.073 571.884 314.888 571.884C334.703 571.884 351.82 576.287 366.238 585.094C380.655 593.83 391.77 606.579 399.583 623.34C407.395 640.101 411.266 660.449 411.195 684.384C411.195 708.461 407.289 729.057 399.476 746.174C391.664 763.29 380.549 776.394 366.131 785.485C351.784 794.505 334.703 799.015 314.888 799.015ZM314.888 750.861C325.115 750.861 333.496 745.535 340.03 734.881C346.635 724.157 349.902 707.324 349.831 684.384C349.831 669.398 348.34 657.147 345.357 647.63C342.374 638.113 338.255 631.081 332.999 626.536C327.743 621.92 321.706 619.611 314.888 619.611C304.661 619.611 296.316 624.796 289.853 635.165C283.39 645.535 280.087 661.941 279.945 684.384C279.874 699.654 281.33 712.225 284.313 722.097C287.296 731.898 291.415 739.143 296.671 743.83C301.998 748.518 308.07 750.861 314.888 750.861ZM558.319 752.14V740.634C558.319 732.68 559.952 725.4 563.219 718.795C566.557 712.118 571.387 706.792 577.708 702.814C584.1 698.766 591.841 696.742 600.932 696.742C610.165 696.742 617.907 698.766 624.157 702.814C630.407 706.792 635.13 712.118 638.326 718.795C641.522 725.4 643.12 732.68 643.12 740.634V752.14C643.12 760.094 641.486 767.41 638.219 774.086C635.023 780.691 630.265 786.018 623.944 790.066C617.694 794.043 610.023 796.032 600.932 796.032C591.699 796.032 583.922 794.043 577.601 790.066C571.28 786.018 566.486 780.691 563.219 774.086C559.952 767.41 558.319 760.094 558.319 752.14ZM580.051 740.634V752.14C580.051 758.745 581.614 764.675 584.739 769.931C587.864 775.116 593.262 777.708 600.932 777.708C608.39 777.708 613.645 775.116 616.699 769.931C619.824 764.675 621.387 758.745 621.387 752.14V740.634C621.387 734.029 619.895 728.134 616.912 722.949C613.929 717.694 608.603 715.066 600.932 715.066C593.475 715.066 588.113 717.694 584.846 722.949C581.65 728.134 580.051 734.029 580.051 740.634ZM449.654 627.282V615.776C449.654 607.822 451.287 600.542 454.554 593.937C457.892 587.26 462.722 581.934 469.043 577.956C475.435 573.908 483.176 571.884 492.267 571.884C501.5 571.884 509.242 573.908 515.492 577.956C521.742 581.934 526.465 587.26 529.661 593.937C532.857 600.542 534.455 607.822 534.455 615.776V627.282C534.455 635.236 532.821 642.552 529.554 649.228C526.358 655.833 521.6 661.16 515.279 665.208C509.029 669.185 501.358 671.174 492.267 671.174C483.034 671.174 475.257 669.185 468.936 665.208C462.615 661.16 457.821 655.833 454.554 649.228C451.287 642.552 449.654 635.236 449.654 627.282ZM471.387 615.776V627.282C471.387 633.887 472.949 639.817 476.074 645.073C479.199 650.258 484.597 652.85 492.267 652.85C499.725 652.85 504.98 650.258 508.034 645.073C511.159 639.817 512.722 633.887 512.722 627.282V615.776C512.722 609.171 511.23 603.276 508.248 598.091C505.265 592.836 499.938 590.208 492.267 590.208C484.81 590.208 479.448 592.836 476.181 598.091C472.985 603.276 471.387 609.171 471.387 615.776ZM457.75 793.049L607.75 574.867H632.04L482.04 793.049H457.75Z" fill="white"/>
<path d="M696.403 780.049V743.685H700.807V776.143H717.71V780.049H696.403ZM724.528 780.049V743.685H736.815C739.668 743.685 742 744.2 743.811 745.23C745.634 746.248 746.983 747.627 747.859 749.367C748.735 751.107 749.173 753.048 749.173 755.191C749.173 757.333 748.735 759.281 747.859 761.032C746.995 762.784 745.658 764.181 743.847 765.223C742.036 766.253 739.715 766.768 736.886 766.768H728.08V762.861H736.744C738.697 762.861 740.266 762.524 741.45 761.849C742.633 761.175 743.491 760.263 744.024 759.115C744.569 757.955 744.841 756.647 744.841 755.191C744.841 753.735 744.569 752.433 744.024 751.285C743.491 750.136 742.627 749.237 741.432 748.586C740.236 747.923 738.65 747.591 736.673 747.591H728.932V780.049H724.528Z" fill="white"/>
<path d="M38.4034 79.0488V42.6852H50.6903C53.5313 42.6852 55.8632 43.1705 57.6861 44.1412C59.509 45.1 60.8584 46.4198 61.7344 48.1007C62.6103 49.7815 63.0483 51.6932 63.0483 53.8358C63.0483 55.9783 62.6103 57.8781 61.7344 59.5353C60.8584 61.1925 59.5149 62.4946 57.7038 63.4416C55.8928 64.3767 53.5786 64.8443 50.7614 64.8443H40.8182V60.867H50.6193C52.5606 60.867 54.1231 60.5829 55.3068 60.0147C56.5024 59.4466 57.3665 58.6416 57.8991 57.6C58.4437 56.5465 58.7159 55.2917 58.7159 53.8358C58.7159 52.3798 58.4437 51.1073 57.8991 50.0183C57.3546 48.9293 56.4846 48.0888 55.2891 47.497C54.0935 46.8933 52.5133 46.5914 50.5483 46.5914H42.8068V79.0488H38.4034ZM55.5199 62.7136L64.4688 79.0488H59.3551L50.5483 62.7136H55.5199ZM70.3858 79.0488V42.6852H92.3319V46.5914H74.7892V58.8784H91.1955V62.7846H74.7892V75.1426H92.6159V79.0488H70.3858ZM120.155 51.7761C119.942 49.9769 119.078 48.5801 117.563 47.5858C116.048 46.5914 114.189 46.0943 111.987 46.0943C110.378 46.0943 108.969 46.3547 107.762 46.8755C106.566 47.3964 105.631 48.1125 104.956 49.024C104.293 49.9354 103.962 50.9712 103.962 52.1312C103.962 53.1019 104.193 53.9364 104.654 54.6348C105.128 55.3213 105.731 55.8954 106.465 56.3571C107.199 56.8069 107.969 57.1797 108.774 57.4757C109.579 57.7598 110.318 57.9906 110.993 58.1681L114.686 59.1625C115.633 59.411 116.687 59.7543 117.847 60.1923C119.019 60.6303 120.137 61.228 121.203 61.9856C122.28 62.7314 123.168 63.6902 123.866 64.862C124.564 66.0339 124.914 67.4721 124.914 69.1767C124.914 71.1416 124.399 72.9172 123.369 74.5034C122.351 76.0895 120.859 77.3502 118.894 78.2853C116.941 79.2205 114.568 79.688 111.774 79.688C109.17 79.688 106.915 79.2678 105.009 78.4274C103.115 77.5869 101.624 76.4151 100.535 74.9118C99.4578 73.4084 98.8482 71.6625 98.7061 69.6738H103.252C103.37 71.0469 103.832 72.1833 104.637 73.0829C105.453 73.9707 106.483 74.6336 107.726 75.0716C108.981 75.4977 110.33 75.7108 111.774 75.7108C113.455 75.7108 114.964 75.4385 116.302 74.894C117.64 74.3377 118.699 73.5682 119.48 72.5858C120.262 71.5914 120.652 70.4314 120.652 69.1056C120.652 67.8983 120.315 66.9158 119.64 66.1582C118.965 65.4006 118.078 64.7851 116.977 64.3116C115.876 63.8381 114.686 63.4238 113.408 63.0687L108.933 61.7903C106.093 60.9735 103.843 59.8076 102.186 58.2924C100.529 56.7773 99.7005 54.7946 99.7005 52.3443C99.7005 50.3083 100.251 48.5327 101.352 47.0176C102.464 45.4906 103.956 44.3069 105.826 43.4664C107.708 42.6142 109.809 42.188 112.129 42.188C114.473 42.188 116.557 42.6082 118.379 43.4487C120.202 44.2773 121.646 45.4136 122.712 46.8578C123.789 48.3019 124.357 49.9413 124.416 51.7761H120.155ZM132.153 79.0488V42.6852H154.099V46.5914H136.557V58.8784H152.963V62.7846H136.557V75.1426H154.384V79.0488H132.153ZM162.036 79.0488V42.6852H174.323C177.164 42.6852 179.496 43.1705 181.319 44.1412C183.142 45.1 184.491 46.4198 185.367 48.1007C186.243 49.7815 186.681 51.6932 186.681 53.8358C186.681 55.9783 186.243 57.8781 185.367 59.5353C184.491 61.1925 183.148 62.4946 181.337 63.4416C179.526 64.3767 177.211 64.8443 174.394 64.8443H164.451V60.867H174.252C176.193 60.867 177.756 60.5829 178.94 60.0147C180.135 59.4466 180.999 58.6416 181.532 57.6C182.076 56.5465 182.349 55.2917 182.349 53.8358C182.349 52.3798 182.076 51.1073 181.532 50.0183C180.987 48.9293 180.117 48.0888 178.922 47.497C177.726 46.8933 176.146 46.5914 174.181 46.5914H166.44V79.0488H162.036ZM179.153 62.7136L188.102 79.0488H182.988L174.181 62.7136H179.153ZM194.68 42.6852L205.475 73.296H205.902L216.697 42.6852H221.314L207.961 79.0488H203.416L190.064 42.6852H194.68ZM226.978 79.0488V42.6852H248.924V46.5914H231.381V58.8784H247.787V62.7846H231.381V75.1426H249.208V79.0488H226.978ZM268.082 79.0488H256.86V42.6852H268.579C272.107 42.6852 275.125 43.4132 277.635 44.8691C280.144 46.3133 282.068 48.3907 283.405 51.1014C284.743 53.8002 285.412 57.0318 285.412 60.796C285.412 64.5839 284.737 67.845 283.387 70.5794C282.038 73.3019 280.073 75.3971 277.493 76.8649C274.912 78.3208 271.775 79.0488 268.082 79.0488ZM261.264 75.1426H267.798C270.805 75.1426 273.296 74.5626 275.273 73.4025C277.25 72.2425 278.724 70.5912 279.694 68.4487C280.665 66.3062 281.15 63.7553 281.15 60.796C281.15 57.8604 280.671 55.3332 279.712 53.2143C278.753 51.0836 277.321 49.4501 275.415 48.3137C273.509 47.1655 271.136 46.5914 268.295 46.5914H261.264V75.1426ZM38.4034 140.049V103.685H60.2074V107.591H42.8068V119.878H58.5739V123.785H42.8068V140.049H38.4034ZM98.4309 121.867C98.4309 125.702 97.7385 129.017 96.3535 131.81C94.9686 134.604 93.0687 136.758 90.6539 138.273C88.2392 139.788 85.4811 140.546 82.3798 140.546C79.2785 140.546 76.5204 139.788 74.1056 138.273C71.6909 136.758 69.791 134.604 68.4061 131.81C67.0211 129.017 66.3287 125.702 66.3287 121.867C66.3287 118.032 67.0211 114.717 68.4061 111.924C69.791 109.13 71.6909 106.976 74.1056 105.461C76.5204 103.946 79.2785 103.188 82.3798 103.188C85.4811 103.188 88.2392 103.946 90.6539 105.461C93.0687 106.976 94.9686 109.13 96.3535 111.924C97.7385 114.717 98.4309 118.032 98.4309 121.867ZM94.1696 121.867C94.1696 118.718 93.6428 116.061 92.5893 113.895C91.5476 111.729 90.1331 110.089 88.3457 108.976C86.5701 107.864 84.5815 107.307 82.3798 107.307C80.1781 107.307 78.1835 107.864 76.3961 108.976C74.6206 110.089 73.206 111.729 72.1525 113.895C71.1109 116.061 70.59 118.718 70.59 121.867C70.59 125.016 71.1109 127.673 72.1525 129.839C73.206 132.006 74.6206 133.645 76.3961 134.758C78.1835 135.87 80.1781 136.427 82.3798 136.427C84.5815 136.427 86.5701 135.87 88.3457 134.758C90.1331 133.645 91.5476 132.006 92.5893 129.839C93.6428 127.673 94.1696 125.016 94.1696 121.867ZM105.835 140.049V103.685H118.122C120.963 103.685 123.295 104.171 125.118 105.141C126.941 106.1 128.29 107.42 129.166 109.101C130.042 110.782 130.48 112.693 130.48 114.836C130.48 116.978 130.042 118.878 129.166 120.535C128.29 122.193 126.947 123.495 125.135 124.442C123.324 125.377 121.01 125.844 118.193 125.844H108.25V121.867H118.051C119.992 121.867 121.555 121.583 122.738 121.015C123.934 120.447 124.798 119.642 125.331 118.6C125.875 117.546 126.148 116.292 126.148 114.836C126.148 113.38 125.875 112.107 125.331 111.018C124.786 109.929 123.916 109.089 122.721 108.497C121.525 107.893 119.945 107.591 117.98 107.591H110.238V140.049H105.835ZM122.952 123.714L131.9 140.049H126.787L117.98 123.714H122.952ZM171.766 112.776C171.553 110.977 170.689 109.58 169.174 108.586C167.659 107.591 165.8 107.094 163.599 107.094C161.989 107.094 160.58 107.355 159.373 107.876C158.177 108.396 157.242 109.113 156.567 110.024C155.905 110.935 155.573 111.971 155.573 113.131C155.573 114.102 155.804 114.936 156.266 115.635C156.739 116.321 157.343 116.895 158.077 117.357C158.811 117.807 159.58 118.18 160.385 118.476C161.19 118.76 161.93 118.991 162.604 119.168L166.298 120.162C167.245 120.411 168.298 120.754 169.458 121.192C170.63 121.63 171.749 122.228 172.814 122.986C173.891 123.731 174.779 124.69 175.477 125.862C176.176 127.034 176.525 128.472 176.525 130.177C176.525 132.142 176.01 133.917 174.98 135.503C173.962 137.09 172.471 138.35 170.506 139.285C168.553 140.22 166.179 140.688 163.386 140.688C160.781 140.688 158.527 140.268 156.621 139.427C154.727 138.587 153.235 137.415 152.146 135.912C151.069 134.408 150.46 132.662 150.317 130.674H154.863C154.981 132.047 155.443 133.183 156.248 134.083C157.065 134.971 158.094 135.634 159.337 136.072C160.592 136.498 161.942 136.711 163.386 136.711C165.067 136.711 166.576 136.439 167.913 135.894C169.251 135.338 170.31 134.568 171.092 133.586C171.873 132.591 172.263 131.431 172.263 130.106C172.263 128.898 171.926 127.916 171.251 127.158C170.577 126.401 169.689 125.785 168.588 125.312C167.487 124.838 166.298 124.424 165.019 124.069L160.545 122.79C157.704 121.974 155.455 120.808 153.798 119.292C152.14 117.777 151.312 115.795 151.312 113.344C151.312 111.308 151.862 109.533 152.963 108.018C154.076 106.491 155.567 105.307 157.438 104.466C159.32 103.614 161.421 103.188 163.741 103.188C166.085 103.188 168.168 103.608 169.991 104.449C171.814 105.277 173.258 106.414 174.323 107.858C175.4 109.302 175.969 110.941 176.028 112.776H171.766ZM181.776 107.591V103.685H209.049V107.591H197.614V140.049H193.211V107.591H181.776ZM213.088 140.049H208.472L221.824 103.685H226.369L239.722 140.049H235.105L224.239 109.438H223.955L213.088 140.049ZM214.793 125.844H233.401V129.751H214.793V125.844ZM245.386 140.049V103.685H249.789V121.725H250.215L266.551 103.685H272.303L257.034 120.091L272.303 140.049H266.977L254.335 123.145L249.789 128.259V140.049H245.386ZM282.406 103.685V140.049H278.003V103.685H282.406ZM320.071 103.685V140.049H315.809L295.994 111.498H295.639V140.049H291.235V103.685H295.497L315.383 132.307H315.738V103.685H320.071ZM353.74 115.049C353.349 113.853 352.834 112.782 352.195 111.835C351.568 110.876 350.816 110.059 349.94 109.385C349.076 108.71 348.094 108.195 346.993 107.84C345.892 107.485 344.684 107.307 343.371 107.307C341.216 107.307 339.257 107.864 337.493 108.976C335.73 110.089 334.327 111.729 333.285 113.895C332.244 116.061 331.723 118.718 331.723 121.867C331.723 125.016 332.25 127.673 333.303 129.839C334.357 132.006 335.783 133.645 337.582 134.758C339.381 135.87 341.406 136.427 343.655 136.427C345.738 136.427 347.573 135.983 349.159 135.095C350.757 134.195 352 132.929 352.888 131.295C353.787 129.65 354.237 127.715 354.237 125.489L355.586 125.773H344.649V121.867H358.498V125.773C358.498 128.768 357.859 131.372 356.581 133.586C355.314 135.799 353.562 137.516 351.325 138.735C349.1 139.942 346.543 140.546 343.655 140.546C340.435 140.546 337.606 139.788 335.167 138.273C332.741 136.758 330.847 134.604 329.486 131.81C328.136 129.017 327.461 125.702 327.461 121.867C327.461 118.991 327.846 116.404 328.616 114.108C329.397 111.8 330.498 109.835 331.918 108.213C333.339 106.591 335.019 105.348 336.961 104.484C338.902 103.62 341.039 103.188 343.371 103.188C345.288 103.188 347.076 103.478 348.733 104.058C350.402 104.626 351.887 105.437 353.189 106.491C354.503 107.532 355.598 108.781 356.474 110.237C357.35 111.681 357.954 113.285 358.285 115.049H353.74Z" fill="white"/>
<path d="M155.449 183.867V402.049H96.2159V238.412H94.9375L47.2102 266.964V216.68L100.903 183.867H155.449ZM295.275 408.015C275.46 407.944 258.343 403.363 243.925 394.272C229.508 385.181 218.393 372.077 210.58 354.961C202.768 337.844 198.897 317.319 198.968 293.384C199.039 269.378 202.945 248.995 210.687 232.233C218.499 215.472 229.579 202.724 243.925 193.988C258.343 185.252 275.46 180.884 295.275 180.884C315.09 180.884 332.207 185.287 346.624 194.094C361.042 202.83 372.157 215.579 379.969 232.34C387.782 249.101 391.653 269.449 391.582 293.384C391.582 317.461 387.675 338.057 379.863 355.174C372.05 372.29 360.935 385.394 346.518 394.485C332.171 403.505 315.09 408.015 295.275 408.015ZM295.275 359.861C305.502 359.861 313.883 354.535 320.417 343.881C327.022 333.157 330.289 316.324 330.218 293.384C330.218 278.398 328.727 266.147 325.744 256.63C322.761 247.113 318.641 240.081 313.386 235.536C308.13 230.92 302.093 228.611 295.275 228.611C285.048 228.611 276.702 233.796 270.239 244.165C263.776 254.535 260.474 270.941 260.332 293.384C260.261 308.654 261.717 321.225 264.7 331.097C267.683 340.898 271.802 348.143 277.058 352.83C282.384 357.518 288.457 359.861 295.275 359.861ZM538.705 361.14V349.634C538.705 341.68 540.339 334.4 543.606 327.795C546.944 321.118 551.773 315.792 558.094 311.814C564.487 307.766 572.228 305.742 581.319 305.742C590.552 305.742 598.293 307.766 604.543 311.814C610.793 315.792 615.516 321.118 618.712 327.795C621.908 334.4 623.506 341.68 623.506 349.634V361.14C623.506 369.094 621.873 376.41 618.606 383.086C615.41 389.691 610.651 395.018 604.33 399.066C598.08 403.043 590.41 405.032 581.319 405.032C572.086 405.032 564.309 403.043 557.988 399.066C551.667 395.018 546.873 389.691 543.606 383.086C540.339 376.41 538.705 369.094 538.705 361.14ZM560.438 349.634V361.14C560.438 367.745 562.001 373.675 565.126 378.931C568.251 384.116 573.648 386.708 581.319 386.708C588.776 386.708 594.032 384.116 597.086 378.931C600.211 373.675 601.773 367.745 601.773 361.14V349.634C601.773 343.029 600.282 337.134 597.299 331.949C594.316 326.694 588.989 324.066 581.319 324.066C573.862 324.066 568.499 326.694 565.232 331.949C562.036 337.134 560.438 343.029 560.438 349.634ZM430.04 236.282V224.776C430.04 216.822 431.674 209.542 434.941 202.937C438.279 196.26 443.109 190.934 449.43 186.956C455.822 182.908 463.563 180.884 472.654 180.884C481.887 180.884 489.629 182.908 495.879 186.956C502.129 190.934 506.852 196.26 510.048 202.937C513.244 209.542 514.842 216.822 514.842 224.776V236.282C514.842 244.236 513.208 251.552 509.941 258.228C506.745 264.833 501.987 270.16 495.665 274.208C489.415 278.185 481.745 280.174 472.654 280.174C463.421 280.174 455.644 278.185 449.323 274.208C443.002 270.16 438.208 264.833 434.941 258.228C431.674 251.552 430.04 244.236 430.04 236.282ZM451.773 224.776V236.282C451.773 242.887 453.336 248.817 456.461 254.073C459.586 259.258 464.984 261.85 472.654 261.85C480.112 261.85 485.367 259.258 488.421 254.073C491.546 248.817 493.109 242.887 493.109 236.282V224.776C493.109 218.171 491.617 212.276 488.634 207.091C485.651 201.836 480.325 199.208 472.654 199.208C465.197 199.208 459.835 201.836 456.567 207.091C453.371 212.276 451.773 218.171 451.773 224.776ZM438.137 402.049L588.137 183.867H612.427L462.427 402.049H438.137Z" fill="white"/>
</svg>
