<svg width="32" height="28" viewBox="0 0 32 28" fill="none" xmlns="http://www.w3.org/2000/svg">
<path opacity="0.1" fill-rule="evenodd" clip-rule="evenodd" d="M5.52523 21.1629C5.62378 21.0561 5.74286 20.9704 5.87533 20.9108C6.00781 20.8512 6.15096 20.8189 6.2962 20.8159H30.5198C30.6223 20.8174 30.7222 20.8484 30.8074 20.9053C30.8927 20.9622 30.9598 21.0425 31.0005 21.1365C31.0412 21.2306 31.0539 21.3344 31.037 21.4355C31.0201 21.5366 30.9743 21.6307 30.9053 21.7064L25.7707 27.4077C25.6721 27.5144 25.553 27.6001 25.4206 27.6597C25.2881 27.7194 25.1449 27.7516 24.9997 27.7546H0.760697C0.658205 27.7531 0.558313 27.7221 0.473035 27.6653C0.387758 27.6084 0.320727 27.5281 0.280006 27.434C0.239284 27.3399 0.226607 27.2361 0.243498 27.135C0.260389 27.0339 0.306129 26.9398 0.375217 26.8641L5.52523 21.1629ZM30.9284 16.4369C30.9975 16.5126 31.0432 16.6067 31.0601 16.7078C31.077 16.8089 31.0643 16.9127 31.0236 17.0068C30.9829 17.1008 30.9159 17.1811 30.8306 17.238C30.7453 17.2949 30.6454 17.3259 30.5429 17.3273L6.31162 17.3466C6.16638 17.3436 6.02323 17.3114 5.89075 17.2518C5.75828 17.1922 5.6392 17.1064 5.54065 16.9997L0.367507 11.3177C0.298419 11.242 0.252679 11.1479 0.235788 11.0468C0.218897 10.9457 0.231575 10.8419 0.272296 10.7478C0.313017 10.6538 0.380048 10.5735 0.465326 10.5166C0.550603 10.4597 0.650495 10.4287 0.752987 10.4272L24.9843 10.408C25.1295 10.4109 25.2727 10.4432 25.4051 10.5028C25.5376 10.5624 25.6567 10.6482 25.7552 10.7549L30.9284 16.4369ZM5.52523 0.346932C5.62378 0.240198 5.74286 0.154455 5.87533 0.0948416C6.00781 0.0352277 6.15096 0.00296957 6.2962 0L30.5352 0.019274C30.6377 0.0207175 30.7376 0.0517411 30.8229 0.108613C30.9081 0.165485 30.9752 0.245784 31.0159 0.33985C31.0566 0.433916 31.0693 0.537744 31.0524 0.638845C31.0355 0.739945 30.9898 0.834013 30.9207 0.909734L25.7707 6.59172C25.6721 6.69845 25.553 6.78419 25.4206 6.84381C25.2881 6.90342 25.1449 6.93568 24.9997 6.93865H0.760697C0.658205 6.9372 0.558313 6.90618 0.473035 6.84931C0.387758 6.79244 0.320727 6.71214 0.280006 6.61807C0.239284 6.524 0.226607 6.42018 0.243498 6.31908C0.260389 6.21798 0.306129 6.12391 0.375217 6.04819L5.52523 0.346932Z" fill="#CCCCCC"/>
</svg>
